<?xml version="1.0" encoding="utf-8"?>
<!-- Generator: Adobe Illustrator 25.0.1, SVG Export Plug-In . SVG Version: 6.00 Build 0)  -->
<svg version="1.1" id="Layer_1" xmlns="http://www.w3.org/2000/svg" xmlns:xlink="http://www.w3.org/1999/xlink" x="0px" y="0px"
	 viewBox="0 0 512 512" style="enable-background:new 0 0 512 512;" xml:space="preserve">
<path d="M256,0C119.9,0,0,119.9,0,256s115.9,256,252,256s260-119.9,260-256S392.1,0,256,0z M416,352c0,17.6-14.4,32-32,32H128
	c-17.6,0-32-14.4-32-32V160c0-17.6,14.4-32,32-32h256c17.6,0,32,14.4,32,32V352z"/>
<path d="M376,138H136c-16.5,0-30,13.3-30,29.5v177c0,16.2,13.5,29.5,30,29.5h240c16.5,0,30-13.3,30-29.5v-177
	C406,151.3,392.5,138,376,138z M393.8,362.6h-34.4V206.2L256,273.8l-103.3-67.5v156.4h-34.4V149.4h20.7L256,224l117.1-74.6h20.7
	V362.6z"/>
</svg>
