<?xml version="1.0" encoding="utf-8"?>
<!-- Generator: Adobe Illustrator 25.0.1, SVG Export Plug-In . SVG Version: 6.00 Build 0)  -->
<svg version="1.1" id="Layer_1" xmlns="http://www.w3.org/2000/svg" xmlns:xlink="http://www.w3.org/1999/xlink" x="0px" y="0px"
	 viewBox="0 0 1200 811.4" style="enable-background:new 0 0 1200 811.4;" xml:space="preserve">
<style type="text/css">
	.st0{fill:#72A3FD;}
	.st1{fill:#335EFD;}
</style>
<path class="st0" d="M748.9,76.2c122.3-0.7,219,93.4,224.5,215.6c0,2.5,0,5,0,7c-1.1,38,26.8,67.2,59.3,74
	c59.3,12,97.1,60.6,89.3,129.7c-4.8,14.6-8.2,29.3-14.5,37.3c-19.7,31.9-55.5,52.2-93,51.6H209.9c-3.6-1.2-10.3-3.2-14.1-3.8
	c-70.7-11.7-129.3-84.6-117-165.3c11.4-73.3,75-127,143.3-125.4c51.1-0.1,78.5-34.9,78.7-76.2c0-0.8-0.4,1.4,0-3.7
	c1.1-26.6,15.1-48.7,40.3-59.7c34.3-17,74.7-6,95.1,22.7c12.5,18.6,32.1,31.1,53.8,32.4l9.2,0.1c24.9-0.5,47.6-13,61.2-33.9
	C602,114.2,672.4,76.1,748.9,76.2"/>
<path class="st1" d="M749.1,76.2c121.5-0.8,221.2,96,224,217.5c0,2.5,0,5,0,6.9c0.2,35.3,25.3,65.5,59.9,72.2
	c60.2,11.7,99.5,69.9,87.9,130.2c-2.6,13.5-7.7,26.5-15.1,38.1c-19.5,31.7-54.2,50.8-91.4,50.3H212.5c-3.2-0.3-6.5-1-9.2-1.9
	c-1.6-0.6-3.2-1-4.8-1.3c-78.4-14.1-131.6-88.4-119-167.4c11.4-72.1,74-124.9,147-123.9c40.9,0.3,74.3-32.7,74.6-73.6
	c0-0.9,0-1.7,0-2.6c-0.7-27.4,15.2-52.4,40.3-63.4c34.1-16.7,75.2-5.8,96.6,25.6c12.4,18.4,33.1,29.5,55.3,29.5h6.2
	c24.8-0.5,47.7-13.2,61.2-33.9C602,114.6,673,76,749.1,76.2 M749.8,0c-101.9-0.2-197,51.4-252.4,136.9
	c-48.2-67.5-142.1-83.2-209.6-35c-38.8,27.7-62.1,72.1-62.9,119.7C102.7,219.8,2.1,317.3,0.2,439.4c-1.7,110.3,78.1,205,187.1,222
	l0,0l821.1,3.7c92.8,0,180.9-74,190.5-165c9.9-95.5-55-182.8-149.3-200.8c0-1.2,0-2.4,0-3.7C1048.4,131.2,914.2-1.1,749.8,0z"/>
<path d="M188.9,355h21.7l17.8,55.5l19-55.5h21.9l-25.1,72.3l21.9,60L312,354h25.1l-60.4,163.1H257l-27.4-72.9l-28.2,72.9h-20.6
	l-59.6-162.7h25.1l45.9,133.3l21.9-60L188.9,355z"/>
<path d="M385.9,519.4c-7.9,0-15.8-1.7-23-5.1c-6.7-3.2-12.7-7.8-17.5-13.4c-5.1-5.7-9-12.4-11.5-19.6c-6.2-17.8-5.1-37.4,3-54.4
	c4.4-9.1,11.2-16.8,19.7-22.4c8.7-5.7,18.9-8.7,29.2-8.5c10.5-0.3,20.8,2.7,29.4,8.6c8.2,5.7,14.8,13.4,19,22.4
	c4.7,9.4,7.1,19.7,7,30.2c0.1,1.7,0.1,3.4,0,5.1c0.1,1.2,0.1,2.5,0,3.7h-87.4c0.5,6.5,2.4,12.8,5.5,18.5c2.9,4.9,6.9,9,11.8,12
	c4.6,2.9,9.8,4.4,15.2,4.4c6.2,0,12.3-1.7,17.5-5c5.1-3,9.1-7.6,11-13.2l19,6.2c-2.3,6-5.8,11.5-10.4,16c-4.9,4.7-10.6,8.4-16.9,11
	C400.2,518.3,393.1,519.6,385.9,519.4z M353.4,449.3h65.4c-0.4-6.3-2.2-12.5-5.2-18c-2.8-5.1-6.8-9.3-11.8-12.3
	c-4.7-2.9-10.2-4.5-15.7-4.5c-5.6,0-11.1,1.5-15.8,4.5c-4.9,2.9-8.9,7.1-11.7,12C355.4,436.6,353.7,442.9,353.4,449.3z"/>
<path d="M452,482.4c-0.1-7.1,1.9-14,5.9-19.9c4.1-5.8,9.8-10.4,16.4-13.2c7.5-3.2,15.6-4.8,23.8-4.7c4.9,0,9.9,0.5,14.8,1.3
	c4.6,0.7,9.1,1.9,13.4,3.5V442c0.3-7-2.1-13.9-6.9-19c-5.3-4.9-12.4-7.5-19.6-7c-5.9,0-11.7,1.1-17.1,3.4
	c-6.1,2.7-11.9,6.2-17.1,10.3l-7.5-17.1c6.4-5.2,13.6-9.5,21.3-12.6c7.3-2.8,15.1-4.1,23-4.1c12.6-0.7,25,3.9,34.1,12.7
	c8.8,9.7,13.2,22.6,12.4,35.6v44.3c-0.2,2.1,0.3,4.3,1.4,6.1c1.2,1.3,3,2.1,4.8,2v20.6c-1.8,0.4-3.6,0.7-5.4,1l-4.1,0.5
	c-7.9,0.5-14.8-5.4-15.4-13.3l-0.7-6.9c-4.5,6.8-10.6,12.3-17.9,15.9c-6.9,3.5-14.5,5.4-22.2,5.4c-6.7,0.1-13.2-1.6-19-4.9
	c-5.5-3.2-10.1-7.9-13.2-13.5C453.7,495.6,452,489.1,452,482.4z M520.8,489.8c1.5-1.9,2.7-4,3.8-6.1c1-1.6,1.5-3.4,1.6-5.3V465
	c-3.9-1.6-8-2.9-12.2-3.7c-4.1-0.8-8.3-1.2-12.5-1.2c-7.2-0.3-14.2,1.6-20.3,5.4c-5,3.2-8,8.9-7.8,14.9c0,3.3,0.9,6.6,2.6,9.5
	c1.8,3.1,4.3,5.8,7.4,7.6c3.6,2.2,7.7,3.2,11.9,3c5,0,10-1.1,14.5-3.2C514,495.5,517.7,493,520.8,489.8z"/>
<path d="M635.8,511.4c-1.8,1-4.2,2-7.2,3.3c-3.1,1.3-6.3,2.4-9.5,3.3c-3.6,0.9-7.4,1.4-11.1,1.3c-4.5,0.1-9-0.9-13-2.9
	c-4-1.9-7.3-4.9-9.5-8.8c-2.6-4.7-3.8-9.9-3.6-15.2v-74.9h-15v-19h14.5v-39.8H604v39.4h23.5v19H604v66.7c-0.1,3.5,1.2,7,3.6,9.5
	c2.1,2,5,3.1,7.9,3c3.3,0,6.5-0.6,9.5-1.9l6.1-2.9L635.8,511.4z"/>
<path d="M748.4,517.1h-22.6v-66.7c0.6-8.4-1.3-16.7-5.4-24c-3.3-5.1-9.1-8.2-15.2-8c-4.4,0.1-8.7,1.3-12.5,3.6
	c-4.3,2.5-8,5.7-11.1,9.5c-3.3,4.3-5.8,9.2-7.3,14.4V517h-22.8V349.8h22.8V422c3.8-7.8,9.7-14.4,17-19c6.8-4.4,14.8-6.7,22.9-6.7
	c5.9-0.3,11.9,1,17.1,3.7c4.3,2.6,7.8,6.2,10.3,10.6c2.7,4.8,4.5,9.9,5.4,15.3c1,6.1,1.5,12.3,1.5,18.6L748.4,517.1z"/>
<path d="M823.9,519.4c-7.9,0-15.8-1.7-23-5.1c-6.7-3.2-12.7-7.8-17.5-13.4c-5-5.8-8.9-12.4-11.5-19.6c-6.2-17.8-5.1-37.4,3-54.4
	c4.4-9.1,11.2-16.8,19.7-22.4c8.7-5.7,18.9-8.7,29.2-8.5c10.5-0.3,20.8,2.7,29.4,8.6c8.2,5.7,14.8,13.4,19,22.4
	c4.7,9.4,7.1,19.7,7,30.2c0,1.8,0,3.5,0,5.1s0,2.8,0,3.7h-87.4c0.5,6.5,2.4,12.8,5.5,18.5c2.9,4.9,7,9,11.9,12
	c4.6,2.9,9.9,4.4,15.3,4.4c6.2,0,12.2-1.7,17.4-5c5.1-3,9.1-7.6,11-13.2l19,6.2c-2.3,6-5.9,11.5-10.5,16c-4.9,4.7-10.6,8.4-16.9,11
	C838.1,518.3,831,519.6,823.9,519.4z M791.4,449.3h65.5c-0.4-6.3-2.2-12.5-5.2-18c-2.8-5.1-6.9-9.3-11.9-12.3c-9.7-6-21.9-6-31.5,0
	c-4.8,2.9-8.9,7.1-11.6,12C793.4,436.6,791.6,442.9,791.4,449.3z"/>
<path d="M958.4,419c-8.2,0-16.3,2.3-23.2,6.7c-6.8,4.2-11.9,10.6-14.6,18.1v73.3h-22.8V398.2h20.9v25.6c3.5-7.4,8.6-13.9,15-19
	c5.3-4.7,12-7.6,19-8.2h3.6h2.2L958.4,419z"/>
<path d="M1053.9,494.4v22.7H975v-22.7h29.3v-80.3c-1.6,2.3-3.6,4.3-5.8,5.9c-2.8,2.1-5.8,4-8.9,5.7c-3.1,1.6-6.2,3-9.5,4.2
	c-3.1,1.1-6.3,1.7-9.5,1.6V408c3.3-0.1,6.6-1.1,9.5-2.8c3.7-1.9,7.3-4,10.7-6.5c3.1-2.3,6.1-4.7,8.9-7.3c1.7-1.5,3.2-3.2,4.4-5.1
	h23.3v108.2h26.5V494.4z"/>
<path d="M299.2,809.5V674.2h51.2c5.3-0.1,10.4,1.2,15,3.8s8.7,6,12,10.1c6.9,8.5,10.6,19.1,10.7,30.1c0,7.4-1.5,14.6-4.6,21.3
	c-2.7,6.4-6.9,12.1-12.4,16.5c-5.5,4.2-12.2,6.4-19,6.4h-33.5v47h-19.4L299.2,809.5L299.2,809.5z M318.3,743.6h32
	c3.5,0,6.8-1.1,9.5-3.3c3-2.5,5.2-5.8,6.5-9.5c1.7-4.1,2.5-8.6,2.5-13c0-4.5-0.9-8.9-2.9-13c-1.6-3.5-4.1-6.5-7.1-8.8
	c-2.7-2.1-6.1-3.2-9.5-3.1h-30.6L318.3,743.6z"/>
<path d="M454.2,728c-6.7,0.1-13.3,2-19,5.5s-9.9,8.8-12.1,15v60.9h-19v-98.8h17.3v21.3c2.9-6.3,7.1-11.8,12.4-16.3
	c4.4-3.9,10-6.2,15.8-6.8h3h1.8L454.2,728z"/>
<path d="M507.2,811.4c-6.6,0.1-13.1-1.3-19-4.1c-5.6-2.7-10.5-6.5-14.6-11.1c-4.2-4.8-7.4-10.3-9.5-16.3c-5.2-14.8-4.4-31,2.4-45.1
	c3.7-7.7,9.3-14.3,16.4-19c7.2-4.7,15.7-7.1,24.4-7c8.7-0.2,17.2,2.3,24.5,7c6.8,4.9,12.3,11.4,15.8,19c3.8,7.7,5.8,16.2,5.7,24.8
	c0,1.5,0,2.9,0,4.2c0.1,1,0.1,2.1,0,3.1h-72.7c0.5,5.4,2.2,10.6,5,15.2c2.3,4.1,5.5,7.6,9.5,10.1c3.8,2.4,8.2,3.7,12.7,3.7
	c5.1,0,10.1-1.5,14.5-4.2c4.4-2.4,7.8-6.3,9.5-11l16.1,5.1c-2,4.9-5,9.4-8.9,13c-4,4-8.8,7.3-14,9.5
	C519.3,810.6,513.3,811.6,507.2,811.4z M480.3,753.1h54.2c-0.3-5.2-1.8-10.4-4.4-15c-2.3-4.1-5.6-7.5-9.5-10
	c-3.9-2.4-8.4-3.6-13-3.6c-4.6,0-9.2,1.2-13.1,3.6c-3.9,2.5-7.2,6-9.5,10C482.1,742.7,480.5,747.8,480.3,753.1z"/>
<path d="M600.5,811.4c-7.3,0-14.6-1.4-21.4-4.2c-6.7-2.7-12.7-6.9-17.4-12.4l7-13.9c4.6,4.5,9.9,8.2,15.7,11
	c4.9,2.3,10.2,3.5,15.5,3.5c4.5,0.2,9.1-0.9,13-3.2c3.2-2.1,5.1-5.7,5-9.5c0.1-2.6-0.8-5.2-2.7-7c-2.3-1.7-4.9-3-7.6-3.9l-11.5-3.8
	c-5.5-1.8-10.9-4-16.1-6.7c-3.8-2-7.1-5-9.5-8.6c-2.3-4-3.4-8.5-3.2-13c-0.2-5.6,1.2-11,4.1-15.8c3.1-4.6,7.4-8.3,12.5-10.5
	c5.8-2.6,12.1-3.8,18.5-3.7c6.2,0,12.3,1.1,18.1,3.3c5.6,2.3,10.7,5.8,14.7,10.4l-8.1,13.7c-3.5-3.6-7.6-6.6-12.2-8.8
	c-4.3-1.9-8.9-2.9-13.5-2.9c-2.6,0-5.3,0.4-7.8,1s-4.7,1.9-6.5,3.7c-1.8,2.1-2.7,4.9-2.6,7.7c-0.1,2.4,0.7,4.7,2.2,6.5
	c1.8,1.7,3.9,3.1,6.2,4c2.8,1.1,6.2,2.4,10.2,3.8c6.1,1.8,12,4,17.8,6.6c4.4,1.9,8.4,4.8,11.4,8.6c2.8,4,4.2,8.8,4.1,13.6
	c0.4,8.5-3.1,16.7-9.5,22.3C619.2,809,609.9,811.9,600.5,811.4z"/>
<path d="M702.7,804.7c-1.4,0.8-3.5,1.7-6,2.8c-2.7,1.1-5.5,2.1-8.3,2.8c-3.1,0.8-6.3,1.2-9.5,1.1c-3.6,0.2-7.2-0.5-10.5-1.9
	c-3.4-1.6-6.2-4.1-8-7.3c-2.2-3.9-3.2-8.2-3-12.7v-62.7h-12v-16.2h12v-32.8h19v32.8h19v16.2H676v55.3c-0.1,2.8,1,5.5,3,7.5
	c1.8,1.6,4.1,2.5,6.6,2.5c2.7,0,5.3-0.6,7.7-1.6c2.5-1,4.1-1.9,5-2.4L702.7,804.7z"/>
<path d="M754.9,811.4c-6.6,0.1-13.1-1.3-19-4.1c-5.6-2.6-10.5-6.5-14.5-11.2c-4.2-4.8-7.4-10.3-9.5-16.3c-2.2-6.1-3.3-12.6-3.3-19
	c0-6.7,1.1-13.4,3.3-19.7c2.1-6,5.3-11.5,9.5-16.3c4-4.8,8.9-8.6,14.6-11.2c6-2.8,12.5-4.2,19-4.1c6.6-0.1,13.1,1.3,19,4.1
	c5.6,2.7,10.5,6.5,14.5,11.2c4.2,4.8,7.4,10.3,9.5,16.3c2.2,6.3,3.3,13,3.2,19.7c0,6.5-1.1,12.9-3.2,19c-2.2,6-5.4,11.5-9.5,16.3
	C780.2,806,767.9,811.6,754.9,811.4z M728.2,760.2c-0.1,5.9,1.1,11.7,3.6,17c2.1,4.7,5.4,8.8,9.5,11.9c3.9,2.8,8.5,4.3,13.3,4.3
	c4.9,0.1,9.8-1.4,13.8-4.3c4.1-3.2,7.4-7.3,9.5-12.1c2.4-5.3,3.6-11,3.5-16.9c0.2-6-0.9-11.9-3.3-17.4c-2.2-4.7-5.4-8.8-9.5-11.9
	c-3.9-2.8-8.7-4.3-13.5-4.3c-4.9,0-9.6,1.5-13.5,4.5c-4.1,3.2-7.4,7.3-9.5,12.1C729.5,748.5,728.1,754.3,728.2,760.2z"/>
<path d="M898.4,809.5h-19v-55.1c0.7-6.9-0.4-14-3.4-20.3c-2.6-4.1-7.2-6.5-12-6.3c-3.9,0.1-7.6,1.1-11,3c-3.6,2.2-6.8,4.9-9.5,8.2
	c-2.8,3.5-5,7.5-6.3,11.8v58.7h-19v-98.8h17.1v19.8c2.2-4.3,5.3-8.2,9-11.3c3.7-3.2,8-5.7,12.7-7.3c4.7-1.8,9.8-2.7,14.9-2.7
	c4.7-0.2,9.3,0.9,13.4,3.2c3.5,2.1,6.4,5.1,8.3,8.8c2,4.1,3.4,8.4,4.1,12.9c0.8,5.1,1.2,10.2,1.1,15.3L898.4,809.5z"/>
</svg>
